<svg width="190" height="40" viewBox="0 0 190 40" fill="none" xmlns="http://www.w3.org/2000/svg">
<g clip-path="url(#clip0_202_2)">
<path d="M35.213 11.501L35.206 6.288L25.586 0V4.022L31.931 8.2L31.936 11.402L28.988 13.398L26.977 11.931V9.446L23.7 7.204V11.727L18.505 14.915L18.495 23.335L14.822 25.403L12.937 23.926V21.488L15.169 19.959V19.939V16.166L11.152 18.854L8.081 16.856L5.276 18.693L9.659 21.694V23.536L6.5 25.674L3.277 23.492V16.23L8.062 12.991L8.066 9.875L14.203 13.827L19.361 10.394L16.216 8.559L14.159 9.947L9.677 6.983L14.731 4.036L19.11 6.603V2.775L14.736 0.211L4.794 6.008L4.787 11.223L0 14.465V25.257L4.787 28.499L4.794 33.714L14.414 40V35.981L8.069 31.803L8.064 28.601L11.012 26.605L13.023 28.072V30.557L16.3 32.798V28.275L21.569 25.088L21.628 16.667L25.178 14.599L27.063 16.076V18.514L24.831 20.043V20.063V23.837L28.848 21.148L31.919 23.146L34.724 21.309L30.34 18.306V16.466L33.5 14.329L36.723 16.511V23.772L31.939 27.012L31.934 30.127L25.797 26.173L20.639 29.584L23.784 31.416L25.841 30.055L30.323 33.019L25.269 35.966L20.89 33.399V37.225L25.264 39.789L35.206 33.995L35.213 28.779L40 25.537V14.743L35.213 11.501Z" fill="#AC6AFF"/>
<path d="M70.1634 13.3707C70.0185 12.8338 69.8054 12.3608 69.5241 11.9517C69.2429 11.5341 68.8977 11.1804 68.4886 10.8906C68.0795 10.6009 67.6108 10.3835 67.0824 10.2386C66.554 10.0852 65.9744 10.0085 65.3438 10.0085C64.0739 10.0085 62.9744 10.3153 62.0455 10.929C61.125 11.5426 60.4134 12.4375 59.9105 13.6136C59.4077 14.7812 59.1562 16.2003 59.1562 17.8707C59.1562 19.5497 59.3991 20.9815 59.8849 22.1662C60.3707 23.3509 61.0739 24.2543 61.9943 24.8764C62.9148 25.4986 64.0312 25.8097 65.3438 25.8097C66.5028 25.8097 67.483 25.6222 68.2841 25.2472C69.0938 24.8636 69.7074 24.3224 70.125 23.6236C70.5426 22.9247 70.7514 22.1023 70.7514 21.1562L71.9276 21.2969H65.5611V16.6818H76.8494V20.1463C76.8494 22.4901 76.3509 24.4972 75.3537 26.1676C74.3651 27.8381 73.0014 29.1207 71.2628 30.0156C69.5327 30.9105 67.5426 31.358 65.2926 31.358C62.7955 31.358 60.6009 30.8168 58.7088 29.7344C56.8168 28.652 55.3423 27.1094 54.2855 25.1065C53.2287 23.0952 52.7003 20.7088 52.7003 17.9474C52.7003 15.7997 53.0199 13.8949 53.6591 12.233C54.2983 10.5625 55.1889 9.14773 56.331 7.98864C57.4815 6.82955 58.8111 5.9517 60.3196 5.35511C61.8366 4.75852 63.4688 4.46023 65.2159 4.46023C66.733 4.46023 68.1435 4.67756 69.4474 5.11222C70.7599 5.54688 71.919 6.16051 72.9247 6.95312C73.9389 7.74574 74.7614 8.6875 75.392 9.77841C76.0227 10.8693 76.4148 12.0668 76.5682 13.3707H70.1634ZM86.8306 4.81818V31H80.5792V4.81818H86.8306ZM96.3452 31.3324C95.0923 31.3324 93.9801 31.1236 93.0085 30.706C92.0455 30.2798 91.2827 29.6406 90.7202 28.7884C90.1662 27.9276 89.8892 26.8494 89.8892 25.554C89.8892 24.4631 90.081 23.5426 90.4645 22.7926C90.848 22.0426 91.3764 21.4332 92.0497 20.9645C92.723 20.4957 93.4986 20.142 94.3764 19.9034C95.2543 19.6562 96.1918 19.4901 97.1889 19.4048C98.3054 19.3026 99.2045 19.196 99.8864 19.0852C100.568 18.9659 101.063 18.7997 101.369 18.5866C101.685 18.3651 101.842 18.054 101.842 17.6534V17.5895C101.842 16.9332 101.616 16.4261 101.165 16.0682C100.713 15.7102 100.104 15.5312 99.3366 15.5312C98.5099 15.5312 97.8452 15.7102 97.3423 16.0682C96.8395 16.4261 96.5199 16.9205 96.3835 17.5511L90.6179 17.3466C90.7884 16.1534 91.2273 15.0881 91.9347 14.1506C92.6506 13.2045 93.6307 12.4631 94.875 11.9261C96.1278 11.3807 97.6321 11.108 99.3878 11.108C100.641 11.108 101.795 11.2571 102.852 11.5554C103.909 11.8452 104.83 12.2713 105.614 12.8338C106.398 13.3878 107.003 14.0696 107.429 14.8793C107.864 15.6889 108.081 16.6136 108.081 17.6534V31H102.2V28.2642H102.047C101.697 28.929 101.25 29.4915 100.705 29.9517C100.168 30.4119 99.5327 30.7571 98.7997 30.9872C98.0753 31.2173 97.2571 31.3324 96.3452 31.3324ZM98.2756 27.2415C98.9489 27.2415 99.554 27.1051 100.091 26.8324C100.636 26.5597 101.071 26.1847 101.395 25.7074C101.719 25.2216 101.881 24.6591 101.881 24.0199V22.1534C101.702 22.2472 101.484 22.3324 101.229 22.4091C100.982 22.4858 100.709 22.5582 100.411 22.6264C100.112 22.6946 99.8054 22.7543 99.4901 22.8054C99.1747 22.8565 98.8722 22.9034 98.5824 22.946C97.9943 23.0398 97.4915 23.1847 97.0739 23.3807C96.6648 23.5767 96.3494 23.8324 96.1278 24.1477C95.9148 24.4545 95.8082 24.821 95.8082 25.2472C95.8082 25.8949 96.0384 26.3892 96.4986 26.7301C96.9673 27.071 97.5597 27.2415 98.2756 27.2415ZM111.903 31V11.3636H117.848V14.9688H118.065C118.474 13.7756 119.165 12.8338 120.136 12.1435C121.108 11.4531 122.267 11.108 123.614 11.108C124.977 11.108 126.145 11.4574 127.116 12.1562C128.088 12.8551 128.706 13.7926 128.97 14.9688H129.175C129.541 13.8011 130.257 12.8679 131.322 12.169C132.388 11.4616 133.645 11.108 135.094 11.108C136.952 11.108 138.46 11.7045 139.619 12.8977C140.778 14.0824 141.358 15.7102 141.358 17.7812V31H135.107V19.2131C135.107 18.233 134.855 17.4872 134.352 16.9759C133.849 16.456 133.197 16.196 132.396 16.196C131.536 16.196 130.858 16.4773 130.364 17.0398C129.878 17.5937 129.635 18.3395 129.635 19.277V31H123.626V19.1491C123.626 18.2372 123.379 17.517 122.885 16.9886C122.391 16.4602 121.739 16.196 120.929 16.196C120.384 16.196 119.902 16.3281 119.484 16.5923C119.067 16.848 118.739 17.2145 118.5 17.6918C118.27 18.169 118.155 18.7315 118.155 19.3793V31H111.903ZM145.232 31V11.3636H151.483V31H145.232ZM148.364 9.07528C147.486 9.07528 146.732 8.78551 146.101 8.20597C145.47 7.6179 145.155 6.91051 145.155 6.08381C145.155 5.26562 145.47 4.56676 146.101 3.98722C146.732 3.39915 147.486 3.10511 148.364 3.10511C149.25 3.10511 150.004 3.39915 150.626 3.98722C151.257 4.56676 151.572 5.26562 151.572 6.08381C151.572 6.91051 151.257 7.6179 150.626 8.20597C150.004 8.78551 149.25 9.07528 148.364 9.07528ZM166.623 11.3636V15.9659H153.992V11.3636H166.623ZM156.625 31V10.3665C156.625 8.84943 156.911 7.59233 157.482 6.59517C158.053 5.58949 158.846 4.83949 159.86 4.34517C160.874 3.84233 162.046 3.59091 163.375 3.59091C164.245 3.59091 165.063 3.65909 165.83 3.79545C166.605 3.9233 167.181 4.03835 167.556 4.14062L166.559 8.71733C166.328 8.64062 166.047 8.5767 165.715 8.52557C165.391 8.47443 165.084 8.44886 164.794 8.44886C164.061 8.44886 163.559 8.61079 163.286 8.93466C163.013 9.25852 162.877 9.7017 162.877 10.2642V31H156.625ZM173.452 38.3636C172.702 38.3636 171.995 38.304 171.33 38.1847C170.665 38.0739 170.094 37.9247 169.617 37.7372L170.998 33.1989C171.612 33.4034 172.165 33.5227 172.66 33.5568C173.163 33.5909 173.593 33.5099 173.951 33.3139C174.317 33.1264 174.599 32.7898 174.795 32.304L175.038 31.7159L168.058 11.3636H174.603L178.221 25.375H178.425L182.094 11.3636H188.678L181.276 32.8793C180.918 33.9531 180.411 34.8991 179.755 35.7173C179.107 36.544 178.268 37.1918 177.237 37.6605C176.214 38.1293 174.952 38.3636 173.452 38.3636Z" fill="white"/>
</g>
<defs>
<clipPath id="clip0_202_2">
<rect width="190" height="40" fill="white"/>
</clipPath>
</defs>
</svg>
